<?xml version="1.0" standalone="no"?>
<!DOCTYPE svg PUBLIC "-//W3C//DTD SVG 20010904//EN"
 "http://www.w3.org/TR/2001/REC-SVG-20010904/DTD/svg10.dtd">
<svg version="1.0" xmlns="http://www.w3.org/2000/svg"
 width="320.000000pt" height="320.000000pt" viewBox="0 0 320.000000 320.000000"
 preserveAspectRatio="xMidYMid meet">
<metadata>
Created by potrace 1.14, written by Peter Selinger 2001-2017
</metadata>
<g transform="translate(0.000000,320.000000) scale(0.100000,-0.100000)"
fill="#000000" stroke="none">
<path d="M2400 2720 c-8 -5 -10 -10 -4 -10 5 0 15 -12 22 -27 l12 -28 -6 29
c-3 18 0 32 8 37 10 7 10 9 -2 9 -8 0 -22 -5 -30 -10z"/>
<path d="M2460 2719 c0 -5 5 -7 10 -4 6 3 10 8 10 11 0 2 -4 4 -10 4 -5 0 -10
-5 -10 -11z"/>
<path d="M2310 2708 c-25 -4 -373 -66 -774 -137 l-729 -128 -39 -41 c-21 -23
-38 -38 -38 -34 0 4 -4 1 -9 -7 -12 -18 -32 -5 -24 16 4 10 2 14 -4 10 -6 -4
-13 0 -16 8 -4 9 -1 12 7 9 8 -3 17 -1 21 5 9 15 -13 14 -139 -9 -60 -11 -110
-20 -111 -20 -1 0 2 -24 7 -52 6 -29 29 -161 52 -293 33 -188 46 -239 57 -237
52 12 347 137 342 145 -3 6 -1 7 6 3 12 -8 61 8 221 69 75 29 97 34 103 23 4
-7 48 -76 96 -154 48 -77 103 -168 121 -201 l33 -61 -31 -87 c-18 -48 -32 -93
-32 -100 0 -7 93 -83 206 -170 l207 -158 -174 -69 c-96 -38 -184 -71 -196 -74
-17 -5 -42 10 -111 69 l-89 76 -66 -96 -66 -97 15 -34 c8 -19 13 -36 12 -38
-2 -1 -71 -29 -155 -62 l-152 -59 -79 201 c-44 110 -90 229 -102 264 -13 34
-24 61 -25 60 -4 -4 132 -769 137 -772 1 -2 174 28 383 65 209 37 631 112 938
165 306 54 562 101 569 105 8 5 8 23 0 71 -6 34 -20 119 -32 188 -21 127 -38
188 -39 144 -1 -30 -21 -84 -32 -84 -4 0 -6 6 -4 13 3 7 -4 12 -20 12 -14 0
-25 -3 -25 -7 0 -5 5 -8 11 -8 5 0 7 -4 4 -10 -3 -5 0 -10 7 -10 9 0 9 -3 -2
-10 -12 -7 -17 -3 -23 22 -8 28 -5 35 28 65 21 19 33 38 29 45 -4 6 -3 8 3 5
6 -4 14 0 17 9 4 9 2 13 -5 8 -8 -4 -8 -1 -1 12 9 17 2 108 -9 118 -2 2 -152
-54 -334 -126 -204 -80 -335 -126 -343 -121 -7 4 -69 100 -137 213 l-123 204
36 100 35 99 -29 24 c-35 29 -106 68 -117 65 -5 -1 -6 2 -3 6 5 8 -33 41 -129
114 -5 4 -38 31 -73 60 l-63 52 157 63 c228 91 221 89 254 65 21 -16 37 -20
64 -15 20 3 36 10 36 15 0 5 -5 6 -12 2 -7 -4 -8 -3 -4 4 4 7 14 12 22 12 10
0 12 -5 8 -12 -6 -9 -3 -9 9 0 9 8 20 11 26 8 5 -3 12 1 15 10 5 12 13 14 32
10 24 -6 25 -6 10 9 -21 21 -20 22 7 21 17 -1 22 4 21 21 0 18 2 20 13 11 7
-6 16 -8 20 -4 3 3 2 6 -4 6 -5 0 -10 7 -10 16 0 10 18 24 43 35 23 11 44 26
48 34 3 8 10 15 16 15 6 0 22 12 35 26 14 15 29 23 36 19 8 -5 9 -1 5 12 -5
15 0 25 19 37 14 9 29 15 34 12 4 -3 14 6 21 19 7 14 16 25 19 25 14 0 60 48
53 55 -4 5 -2 5 5 1 7 -3 23 6 37 21 19 20 24 34 19 53 -3 14 -6 25 -7 26 -1
0 -21 -3 -46 -8z m-1720 -542 c0 -2 -8 -10 -17 -17 -16 -13 -17 -12 -4 4 13
16 21 21 21 13z m1894 -860 c-3 -15 -8 -25 -11 -23 -2 3 -1 17 3 31 3 15 8 25
11 23 2 -3 1 -17 -3 -31z m-30 -123 c-11 -72 -25 -128 -44 -170 -10 -23 -16
-44 -12 -47 3 -3 0 -6 -6 -6 -15 0 -15 2 2 47 19 48 37 118 42 162 4 33 11 51
20 51 2 0 1 -17 -2 -37z m-1514 -660 c-10 -16 -11 -15 -6 7 3 14 6 32 7 40 1
8 4 5 6 -7 2 -12 -1 -30 -7 -40z"/>
<path d="M2370 2448 c-14 -11 -33 -26 -43 -33 -16 -11 -11 -28 72 -236 50
-123 91 -219 91 -214 0 6 -13 84 -29 175 -16 91 -35 199 -42 240 -6 41 -15 78
-18 82 -3 4 -17 -3 -31 -14z"/>
<path d="M2189 2303 l-24 -28 28 24 c25 23 32 31 24 31 -2 0 -14 -12 -28 -27z"/>
<path d="M1890 2236 c0 -2 7 -7 16 -10 8 -3 12 -2 9 4 -6 10 -25 14 -25 6z"/>
<path d="M2079 2205 c-40 -30 -59 -53 -59 -74 0 -17 49 26 82 72 24 33 21 34
-23 2z"/>
<path d="M1977 2070 c-3 -11 -4 -20 -3 -20 1 0 9 9 19 20 13 15 14 20 3 20 -7
0 -16 -9 -19 -20z"/>
<path d="M1915 2007 c-69 -75 -76 -84 -61 -84 8 0 13 4 10 9 -3 4 0 8 5 8 16
0 102 86 94 93 -11 11 -17 8 -48 -26z"/>
<path d="M2038 1803 c-48 -71 -89 -138 -93 -150 -10 -37 13 -99 47 -128 26
-22 39 -26 71 -22 31 4 190 61 206 73 6 5 -131 354 -139 354 -3 0 -45 -57 -92
-127z"/>
<path d="M973 1652 c-51 -20 -93 -41 -93 -46 0 -9 129 -348 135 -354 1 -2 44
59 95 134 l92 138 -4 54 c-4 47 -10 60 -37 84 -42 37 -75 36 -188 -10z"/>
<path d="M2570 1191 c-14 -4 -20 -10 -14 -14 6 -3 20 0 30 8 21 16 20 16 -16
6z"/>
</g>
</svg>
